<svg style="display: none;">


    <symbol id="wrote-document"  fill="none" viewBox="0 0 18 22" xmlns="http://www.w3.org/2000/svg">
      <path d="M16.5 13.2523V10.6273C16.5 8.76336 14.989 7.25232 13.125 7.25232H11.625C11.0037 7.25232 10.5 6.74864 10.5 6.12732V4.62732C10.5 2.76336 8.98896 1.25232 7.125 1.25232H5.25M5.25 14.0023H12.75M5.25 17.0023H9M7.5 1.25232H2.625C2.00368 1.25232 1.5 1.756 1.5 2.37732V19.6273C1.5 20.2486 2.00368 20.7523 2.625 20.7523H15.375C15.9963 20.7523 16.5 20.2486 16.5 19.6273V10.2523C16.5 5.28176 12.4706 1.25232 7.5 1.25232Z" stroke="currentColor" stroke-width="1.5" stroke-linecap="round" stroke-linejoin="round"/>
    </symbol>

    <symbol id="home" xmlns="http://www.w3.org/2000/svg" fill="none" viewBox="0 0 24 24" stroke-width="1.5" stroke="currentColor" class="size-6">
      <path stroke-linecap="round" stroke-linejoin="round" d="m2.25 12 8.954-8.955c.44-.439 1.152-.439 1.591 0L21.75 12M4.5 9.75v10.125c0 .621.504 1.125 1.125 1.125H9.75v-4.875c0-.621.504-1.125 1.125-1.125h2.25c.621 0 1.125.504 1.125 1.125V21h4.125c.621 0 1.125-.504 1.125-1.125V9.75M8.25 21h8.25" />
    </symbol>




    
</svg>

